<mxfile host="Electron" modified="2024-04-04T22:58:03.804Z" agent="Mozilla/5.0 (Macintosh; Intel Mac OS X 10_15_7) AppleWebKit/537.36 (KHTML, like Gecko) draw.io/21.3.7 Chrome/112.0.5615.204 Electron/24.5.0 Safari/537.36" etag="0sErAd4TJ8AWXqwo5Lpd" version="21.3.7" type="device">
  <diagram name="Page-1" id="jR16Yi6r8DeQC618YtzR">
    <mxGraphModel dx="804" dy="687" grid="1" gridSize="10" guides="1" tooltips="1" connect="1" arrows="1" fold="1" page="1" pageScale="1" pageWidth="850" pageHeight="1100" math="0" shadow="0">
      <root>
        <mxCell id="0" />
        <mxCell id="1" parent="0" />
        <mxCell id="9NeXlW2_PInRVjdh62oA-1" value="User" style="swimlane;fontStyle=0;childLayout=stackLayout;horizontal=1;startSize=26;fillColor=none;horizontalStack=0;resizeParent=1;resizeParentMax=0;resizeLast=0;collapsible=1;marginBottom=0;whiteSpace=wrap;html=1;" parent="1" vertex="1">
          <mxGeometry x="40" y="40" width="140" height="170" as="geometry" />
        </mxCell>
        <mxCell id="9NeXlW2_PInRVjdh62oA-2" value="+ id&lt;br&gt;+ firstName&lt;br&gt;+ lastName&lt;br&gt;+ contactNumber&lt;br&gt;+ email&lt;br&gt;+ role&lt;br&gt;+ mailing&lt;br&gt;+ address&lt;br&gt;+ dob" style="text;strokeColor=none;fillColor=none;align=left;verticalAlign=top;spacingLeft=4;spacingRight=4;overflow=hidden;rotatable=0;points=[[0,0.5],[1,0.5]];portConstraint=eastwest;whiteSpace=wrap;html=1;" parent="9NeXlW2_PInRVjdh62oA-1" vertex="1">
          <mxGeometry y="26" width="140" height="144" as="geometry" />
        </mxCell>
        <mxCell id="9NeXlW2_PInRVjdh62oA-5" value="Location" style="swimlane;fontStyle=0;childLayout=stackLayout;horizontal=1;startSize=26;fillColor=none;horizontalStack=0;resizeParent=1;resizeParentMax=0;resizeLast=0;collapsible=1;marginBottom=0;whiteSpace=wrap;html=1;" parent="1" vertex="1">
          <mxGeometry x="240" y="40" width="140" height="100" as="geometry" />
        </mxCell>
        <mxCell id="9NeXlW2_PInRVjdh62oA-6" value="+ id&lt;br&gt;+ officeName&lt;br&gt;+ address&lt;br&gt;+ telephone" style="text;strokeColor=none;fillColor=none;align=left;verticalAlign=top;spacingLeft=4;spacingRight=4;overflow=hidden;rotatable=0;points=[[0,0.5],[1,0.5]];portConstraint=eastwest;whiteSpace=wrap;html=1;" parent="9NeXlW2_PInRVjdh62oA-5" vertex="1">
          <mxGeometry y="26" width="140" height="74" as="geometry" />
        </mxCell>
        <mxCell id="9NeXlW2_PInRVjdh62oA-7" value="Appointment" style="swimlane;fontStyle=0;childLayout=stackLayout;horizontal=1;startSize=26;fillColor=none;horizontalStack=0;resizeParent=1;resizeParentMax=0;resizeLast=0;collapsible=1;marginBottom=0;whiteSpace=wrap;html=1;" parent="1" vertex="1">
          <mxGeometry x="280" y="230" width="140" height="80" as="geometry" />
        </mxCell>
        <mxCell id="9NeXlW2_PInRVjdh62oA-8" value="+ id&lt;br&gt;+ appointmentDate" style="text;strokeColor=none;fillColor=none;align=left;verticalAlign=top;spacingLeft=4;spacingRight=4;overflow=hidden;rotatable=0;points=[[0,0.5],[1,0.5]];portConstraint=eastwest;whiteSpace=wrap;html=1;" parent="9NeXlW2_PInRVjdh62oA-7" vertex="1">
          <mxGeometry y="26" width="140" height="54" as="geometry" />
        </mxCell>
        <mxCell id="9NeXlW2_PInRVjdh62oA-9" value="Surgery" style="swimlane;fontStyle=0;childLayout=stackLayout;horizontal=1;startSize=26;fillColor=none;horizontalStack=0;resizeParent=1;resizeParentMax=0;resizeLast=0;collapsible=1;marginBottom=0;whiteSpace=wrap;html=1;" parent="1" vertex="1">
          <mxGeometry x="430" y="40" width="140" height="100" as="geometry" />
        </mxCell>
        <mxCell id="9NeXlW2_PInRVjdh62oA-10" value="+ id&lt;br&gt;+ name&lt;br&gt;+ description&lt;br&gt;+ price" style="text;strokeColor=none;fillColor=none;align=left;verticalAlign=top;spacingLeft=4;spacingRight=4;overflow=hidden;rotatable=0;points=[[0,0.5],[1,0.5]];portConstraint=eastwest;whiteSpace=wrap;html=1;" parent="9NeXlW2_PInRVjdh62oA-9" vertex="1">
          <mxGeometry y="26" width="140" height="74" as="geometry" />
        </mxCell>
        <mxCell id="9NeXlW2_PInRVjdh62oA-11" style="rounded=0;orthogonalLoop=1;jettySize=auto;html=1;exitX=1;exitY=0.5;exitDx=0;exitDy=0;entryX=0;entryY=0.5;entryDx=0;entryDy=0;" parent="1" source="9NeXlW2_PInRVjdh62oA-2" target="9NeXlW2_PInRVjdh62oA-8" edge="1">
          <mxGeometry relative="1" as="geometry" />
        </mxCell>
        <mxCell id="9NeXlW2_PInRVjdh62oA-12" value="1" style="edgeLabel;html=1;align=center;verticalAlign=middle;resizable=0;points=[];" parent="9NeXlW2_PInRVjdh62oA-11" vertex="1" connectable="0">
          <mxGeometry x="-0.6374" y="2" relative="1" as="geometry">
            <mxPoint x="-10" y="-23" as="offset" />
          </mxGeometry>
        </mxCell>
        <mxCell id="9NeXlW2_PInRVjdh62oA-13" value="&lt;font style=&quot;font-size: 16px;&quot;&gt;*&lt;/font&gt;" style="edgeLabel;html=1;align=center;verticalAlign=middle;resizable=0;points=[];" parent="9NeXlW2_PInRVjdh62oA-11" vertex="1" connectable="0">
          <mxGeometry x="0.6474" y="1" relative="1" as="geometry">
            <mxPoint y="-13" as="offset" />
          </mxGeometry>
        </mxCell>
        <mxCell id="9NeXlW2_PInRVjdh62oA-14" value="Dentist" style="swimlane;fontStyle=0;childLayout=stackLayout;horizontal=1;startSize=26;fillColor=none;horizontalStack=0;resizeParent=1;resizeParentMax=0;resizeLast=0;collapsible=1;marginBottom=0;whiteSpace=wrap;html=1;" parent="1" vertex="1">
          <mxGeometry x="490" y="185" width="140" height="170" as="geometry" />
        </mxCell>
        <mxCell id="9NeXlW2_PInRVjdh62oA-15" value="+ id&lt;br&gt;+ firstName&lt;br&gt;+ lastName&lt;br&gt;+ contactNumber&lt;br&gt;+ email&lt;br&gt;+ role&lt;br&gt;+ mailing&lt;br&gt;+ address&lt;br&gt;+ dob" style="text;strokeColor=none;fillColor=none;align=left;verticalAlign=top;spacingLeft=4;spacingRight=4;overflow=hidden;rotatable=0;points=[[0,0.5],[1,0.5]];portConstraint=eastwest;whiteSpace=wrap;html=1;" parent="9NeXlW2_PInRVjdh62oA-14" vertex="1">
          <mxGeometry y="26" width="140" height="144" as="geometry" />
        </mxCell>
        <mxCell id="9NeXlW2_PInRVjdh62oA-16" style="rounded=0;orthogonalLoop=1;jettySize=auto;html=1;exitX=0;exitY=0.5;exitDx=0;exitDy=0;entryX=1;entryY=0.5;entryDx=0;entryDy=0;" parent="1" source="9NeXlW2_PInRVjdh62oA-15" target="9NeXlW2_PInRVjdh62oA-8" edge="1">
          <mxGeometry relative="1" as="geometry">
            <mxPoint x="440" y="390" as="sourcePoint" />
            <mxPoint x="540" y="535" as="targetPoint" />
          </mxGeometry>
        </mxCell>
        <mxCell id="9NeXlW2_PInRVjdh62oA-17" value="1" style="edgeLabel;html=1;align=center;verticalAlign=middle;resizable=0;points=[];" parent="9NeXlW2_PInRVjdh62oA-16" vertex="1" connectable="0">
          <mxGeometry x="-0.6374" y="2" relative="1" as="geometry">
            <mxPoint x="-3" y="-17" as="offset" />
          </mxGeometry>
        </mxCell>
        <mxCell id="9NeXlW2_PInRVjdh62oA-18" value="&lt;font style=&quot;font-size: 16px;&quot;&gt;*&lt;/font&gt;" style="edgeLabel;html=1;align=center;verticalAlign=middle;resizable=0;points=[];" parent="9NeXlW2_PInRVjdh62oA-16" vertex="1" connectable="0">
          <mxGeometry x="0.6474" y="1" relative="1" as="geometry">
            <mxPoint y="-13" as="offset" />
          </mxGeometry>
        </mxCell>
        <mxCell id="9NeXlW2_PInRVjdh62oA-19" style="rounded=0;orthogonalLoop=1;jettySize=auto;html=1;entryX=0.5;entryY=0;entryDx=0;entryDy=0;" parent="1" source="9NeXlW2_PInRVjdh62oA-6" target="9NeXlW2_PInRVjdh62oA-7" edge="1">
          <mxGeometry relative="1" as="geometry">
            <mxPoint x="180" y="420" as="sourcePoint" />
            <mxPoint x="280" y="565" as="targetPoint" />
          </mxGeometry>
        </mxCell>
        <mxCell id="9NeXlW2_PInRVjdh62oA-20" value="1" style="edgeLabel;html=1;align=center;verticalAlign=middle;resizable=0;points=[];" parent="9NeXlW2_PInRVjdh62oA-19" vertex="1" connectable="0">
          <mxGeometry x="-0.6374" y="2" relative="1" as="geometry">
            <mxPoint x="1" y="-6" as="offset" />
          </mxGeometry>
        </mxCell>
        <mxCell id="9NeXlW2_PInRVjdh62oA-21" value="&lt;font style=&quot;font-size: 16px;&quot;&gt;*&lt;/font&gt;" style="edgeLabel;html=1;align=center;verticalAlign=middle;resizable=0;points=[];" parent="9NeXlW2_PInRVjdh62oA-19" vertex="1" connectable="0">
          <mxGeometry x="0.6474" y="1" relative="1" as="geometry">
            <mxPoint x="4" y="-4" as="offset" />
          </mxGeometry>
        </mxCell>
        <mxCell id="9NeXlW2_PInRVjdh62oA-22" style="rounded=0;orthogonalLoop=1;jettySize=auto;html=1;exitX=0.521;exitY=1.041;exitDx=0;exitDy=0;entryX=0.75;entryY=0;entryDx=0;entryDy=0;exitPerimeter=0;" parent="1" source="9NeXlW2_PInRVjdh62oA-10" target="9NeXlW2_PInRVjdh62oA-7" edge="1">
          <mxGeometry relative="1" as="geometry">
            <mxPoint x="360" y="430" as="sourcePoint" />
            <mxPoint x="460" y="575" as="targetPoint" />
          </mxGeometry>
        </mxCell>
        <mxCell id="9NeXlW2_PInRVjdh62oA-23" value="1" style="edgeLabel;html=1;align=center;verticalAlign=middle;resizable=0;points=[];" parent="9NeXlW2_PInRVjdh62oA-22" vertex="1" connectable="0">
          <mxGeometry x="-0.6374" y="2" relative="1" as="geometry">
            <mxPoint x="-7" y="-10" as="offset" />
          </mxGeometry>
        </mxCell>
        <mxCell id="9NeXlW2_PInRVjdh62oA-24" value="&lt;font style=&quot;font-size: 16px;&quot;&gt;*&lt;/font&gt;" style="edgeLabel;html=1;align=center;verticalAlign=middle;resizable=0;points=[];" parent="9NeXlW2_PInRVjdh62oA-22" vertex="1" connectable="0">
          <mxGeometry x="0.6474" y="1" relative="1" as="geometry">
            <mxPoint x="-12" y="-6" as="offset" />
          </mxGeometry>
        </mxCell>
      </root>
    </mxGraphModel>
  </diagram>
</mxfile>
